<svg class="status-icon" viewBox="0 0 16 16" xmlns="http://www.w3.org/2000/svg" style="width: 1.5em; height: 1.5em;">
 <path d="m6.143 8.0905c0.33585-0.34752 0.89086-0.35198 1.2323-0.00973 0.33207 0.33267 0.3383 0.87001 0.014038 1.2102l-0.96743 1.0147c-0.075833 0.079567-0.1137 0.11937-0.1371 0.16587-0.020506 0.041067-0.032921 0.086233-0.036167 0.13223-0.00364 0.051933 0.00863 0.10553 0.033467 0.21277l0.60158 2.6111c0.025372 0.11 0.037767 0.16497 0.033967 0.21827-0.00364 0.04697-0.016726 0.0929-0.038833 0.1348-0.024815 0.0476-0.0645 0.0872-0.1442 0.16703l-0.12907 0.12937c-0.21103 0.21143-0.31653 0.317-0.42454 0.33623-0.094267 0.01671-0.19133-0.0065-0.26817-0.06353-0.088033-0.06543-0.13527-0.20723-0.2296-0.49081l-0.69976-2.1027-1.1647 1.1666c-0.069533 0.0697-0.10427 0.1044-0.12757 0.14543-0.020505 0.0361-0.034567 0.07607-0.041 0.1173-0.00756 0.04647-0.00197 0.0955 0.00864 0.19337l0.063967 0.57659c0.010794 0.09807 0.016185 0.1469 0.00864 0.19337-0.00648 0.04107-0.020506 0.081-0.041 0.11747-0.023218 0.04107-0.058067 0.07573-0.12757 0.14543l-0.068733 0.06887c-0.16468 0.16493-0.24706 0.24743-0.33857 0.2713-0.08027 0.021-0.16541 0.0124-0.23995-0.0237-0.08503-0.04167-0.14968-0.13843-0.27886-0.33257l-0.54604-0.82033c-0.023218-0.03457-0.034547-0.05193-0.04799-0.06763-0.011879-0.014-0.024815-0.0269-0.038833-0.03903-0.015653-0.01354-0.03291-0.02483-0.067637-0.04807l-0.8191-0.54697c-0.19378-0.12937-0.29071-0.19417-0.33202-0.2793-0.036163-0.07483-0.044813-0.15997-0.023739-0.24037 0.023739-0.09167 0.10622-0.17407 0.27087-0.33905l0.06879-0.06887c0.069533-0.0697 0.10428-0.1044 0.14521-0.12777 0.03616-0.02052 0.075927-0.03457 0.11711-0.04107 0.046423-0.0076 0.095363-2e-3 0.19308 0.0087l0.57564 0.06413c0.09776 0.01081 0.14657 0.01623 0.19307 0.0086 0.041017-0.0065 0.080823-0.02052 0.11711-0.04107 0.041017-0.02324 0.075717-0.05807 0.14523-0.12777l1.1647-1.1665-2.0991-0.70085c-0.28312-0.0945-0.4247-0.14183-0.49006-0.22997-0.05711-0.077033-0.080013-0.1742-0.063303-0.2686 0.018893-0.10817 0.12462-0.21383 0.33565-0.42522l0.12908-0.12927c0.079683-0.079767 0.11954-0.11973 0.16675-0.14443 0.041593-0.021639 0.087563-0.0351 0.13453-0.0389 0.052903-0.00408 0.10799 0.00865 0.21784 0.034033l2.5969 0.60025c0.10793 0.024854 0.16193 0.0373 0.214 0.0335 0.0502-0.0036 0.099167-0.017823 0.14337-0.042733 0.045867-0.025393 0.084233-0.0651 0.1613-0.1448z" fill="none" stroke="white" stroke-linecap="round" stroke-linejoin="round" stroke-width=".8"/>
 <path d="m10.912 3.7396h2.6686m-2.6686 1.3349h1.6832m2.6547-0.83431c0 1.6588-1.3441 3.0035-3.0022 3.0035h-3.002s0.52011-1.2494 0.31197-1.6684c-0.19983-0.4022-0.3122-0.85554-0.3122-1.3352 0-1.6588 1.3441-3.0035 3.0022-3.0035 1.6581 0 3.0022 1.3447 3.0022 3.0035z" fill="none" stroke="white" stroke-linecap="round" stroke-linejoin="round" stroke-width=".8"/>
</svg>
