<svg class="status-icon" viewBox="0 0 16 16" xmlns="http://www.w3.org/2000/svg" style="width: 1.5em; height: 1.5em;">
 <g fill="none" stroke="white" stroke-linecap="round" stroke-linejoin="round" stroke-width=".8">
  <path d="m12.151 6.2233c0.32459-0.33584 0.86099-0.34014 1.191-0.0094 0.32093 0.32148 0.32695 0.84075 0.01357 1.1695l-0.93499 0.98058c-0.07328 0.07688-0.10987 0.11535-0.13257 0.1603-0.01983 0.03968-0.03173 0.08333-0.03493 0.1278-0.0035 0.05017 0.0083 0.10198 0.03238 0.20561l0.58141 2.5233c0.02448 0.1063 0.03657 0.15942 0.03285 0.21093-0.0035 0.04538-0.01611 0.08977-0.03753 0.13027-0.024 0.046-0.06232 0.08427-0.13933 0.16142l-0.12468 0.125c-0.20396 0.20432-0.30592 0.30634-0.4103 0.32492-0.09115 0.01615-0.18492-0.0063-0.25917-0.06138-0.08505-0.06323-0.13082-0.20026-0.2219-0.47431l-0.67628-2.032-1.1256 1.1274c-0.06718 0.06735-0.10083 0.10088-0.12322 0.14053-0.01983 0.03488-0.03335 0.07352-0.03962 0.11335-0.0073 0.04492-0.0019 0.0923 0.0083 0.18687l0.06185 0.5572c0.01043 0.09477 0.01564 0.14195 0.0083 0.18687-0.0063 0.03968-0.01983 0.07828-0.03962 0.1135-0.02238 0.03968-0.05605 0.07318-0.12322 0.14053l-0.06637 0.06655c-0.15915 0.15938-0.23877 0.23911-0.32722 0.26218-0.07757 0.0203-0.15985 0.01199-0.2319-0.0229-0.08218-0.04027-0.14467-0.13378-0.26951-0.32138l-0.52766-0.79273c-0.02243-0.03342-0.0334-0.05017-0.04638-0.06535-0.01148-0.01353-0.024-0.026-0.03753-0.0377-0.01513-0.01309-0.0318-0.02402-0.06537-0.04643l-0.79163-0.52857c-0.18729-0.125-0.28096-0.18764-0.32089-0.26991-0.03493-0.07232-0.04332-0.1546-0.02295-0.23228 0.02295-0.08858 0.10265-0.16822 0.26178-0.32765l0.0665-0.06655c0.06722-0.06735 0.10078-0.10088 0.14033-0.12347 0.03493-0.01983 0.0734-0.03342 0.1132-0.03968 0.04487-0.0073 0.09215-0.0019 0.1866 0.0084l0.55634 0.06197c0.09448 0.01044 0.14167 0.01569 0.1866 0.0084 0.03963-0.0063 0.07812-0.01983 0.1132-0.03968 0.03963-0.02245 0.07318-0.05612 0.14037-0.12347l1.1254-1.1274-2.0288-0.67728c-0.27363-0.09132-0.41046-0.13705-0.47362-0.22223-0.0552-0.07443-0.07735-0.16833-0.06118-0.25957 0.01827-0.10453 0.12045-0.20664 0.3244-0.41092l0.12475-0.12492c0.07702-0.07708 0.11555-0.11572 0.16115-0.13958 0.04022-0.02092 0.08463-0.03392 0.13002-0.0376 0.05112-0.0039 0.10435 0.0084 0.21054 0.03288l2.5099 0.58006c0.10438 0.02402 0.15658 0.03603 0.20682 0.03238 0.04848-0.0035 0.09583-0.01722 0.13852-0.0413 0.04428-0.02455 0.08133-0.06292 0.15593-0.13992z"/>
  <path d="m1.2859 4.382 5.054e-4 10.786 5.1366-1.2086 4.2071 1.2902 4.2304-1.112v-10.746l-4.2305 1.2422-4.207-1.1479"/>
  <path d="m3.6836 4.3176c-0.83511 0-1.2532-1.0347-0.66274-1.6397 0.59044-0.60508 1.6-0.17663 1.6 0.67918-5.8e-4 0.53026-0.41988 0.95996-0.9373 0.96056zm1.242 2.0664c-0.37399 0.43954-0.7901 0.8395-1.242 1.1939-0.45195-0.35436-0.86805-0.75432-1.242-1.1939-0.59399-0.70116-1.3021-1.7955-1.3021-3.0269 0-1.4399 1.139-2.6072 2.5441-2.6072s2.5441 1.1673 2.5441 2.6072c0 1.2314-0.70808 2.3258-1.3021 3.0269z"/>
 </g>
</svg>
