<svg class="status-icon" viewBox="0 0 16 16" xmlns="http://www.w3.org/2000/svg">
  <circle cx="8" cy="8" r="7" fill="none" stroke="currentColor" stroke-width="1"/>
  <path stroke="currentColor" stroke-width="0.5" stroke-linecap="round" stroke-linejoin="round" d="m4.9188 7.1235 1.8125-0.47124c0.19937-0.054371 0.32624-0.25374 0.27187-0.47124-0.054378-0.19937-0.25374-0.32624-0.47124-0.27187l-0.94248 0.25374c0.30812-0.39874 0.70686-0.72498 1.1962-0.94248 0.74311-0.32624 1.5587-0.34437 2.3199-0.054371 0.74311 0.28999 1.3412 0.86998 1.6675 1.595 0.09062 0.19937 0.30812 0.27187 0.50749 0.19937 0.19937-0.090623 0.27187-0.30812 0.19937-0.50749-0.39874-0.92435-1.1418-1.6312-2.0843-2.0118-0.94248-0.36249-1.9756-0.34437-2.8999 0.054371-0.61624 0.27187-1.1237 0.68874-1.5225 1.2143l-0.23562-0.88811c-0.054371-0.19937-0.25374-0.32624-0.47124-0.27187-0.19937 0.054371-0.32624 0.25374-0.27187 0.47124l0.47124 1.8125c0.054371 0.25375 0.18125 0.36249 0.45311 0.28999zm7.0867 3.8424-0.47124-1.7943s-0.0725-0.36249-0.43499-0.27187l-1.8125 0.47124c-0.19937 0.05437-0.32624 0.25374-0.27187 0.47124 0.05437 0.19937 0.25374 0.32624 0.47124 0.27187l0.94248-0.25374c-0.79748 1.0512-2.2112 1.4862-3.498 0.97873-0.74311-0.28999-1.3412-0.86998-1.6675-1.595-0.090623-0.19937-0.30812-0.27187-0.50749-0.19937-0.19937 0.09062-0.27187 0.30812-0.19937 0.50749 0.39874 0.92435 1.1418 1.6312 2.0843 2.0118 0.45312 0.18125 0.90623 0.25374 1.3775 0.25374 1.1962 0 2.3199-0.56186 3.0449-1.5406l0.23562 0.8881c0.03625 0.16312 0.19937 0.28999 0.36249 0.28999 0.03624 0 0.0725 0 0.09062-0.01813 0.18125-0.0725 0.30812-0.27187 0.25374-0.47124z"/>
</svg>
